<?xml version="1.0" standalone="no"?><!DOCTYPE svg PUBLIC "-//W3C//DTD SVG 1.1//EN" "http://www.w3.org/Graphics/SVG/1.1/DTD/svg11.dtd"><svg t="1689064067203" class="icon" viewBox="0 0 1024 1024" version="1.1" xmlns="http://www.w3.org/2000/svg" p-id="3926" xmlns:xlink="http://www.w3.org/1999/xlink" width="200" height="200"><path d="M768 960H256c-70.4 0-128-57.6-128-128V192c0-70.4 57.6-128 128-128h384l256 256v512c0 70.4-57.6 128-128 128z" fill="#92C8FF" p-id="3927"></path><path d="M896 320H704c-35.2 0-64-28.8-64-64V64l256 256zM448 672H256c-17.6 0-32-14.4-32-32s14.4-32 32-32h192c17.6 0 32 14.4 32 32s-14.4 32-32 32zM640 832H256c-17.6 0-32-14.4-32-32s14.4-32 32-32h384c17.6 0 32 14.4 32 32s-14.4 32-32 32z" fill="#409EFF" p-id="3928"></path></svg>